<svg width="40" height="40" viewBox="0 0 40 40" fill="none" xmlns="http://www.w3.org/2000/svg">
<path d="M31.136 9.67749H8.86381C7.88784 9.67749 7.09668 10.4959 7.09668 11.5056V27.3241C7.09668 28.3337 7.88784 29.1522 8.86381 29.1522H31.136C32.112 29.1522 32.903 28.3337 32.903 27.3241V11.5056C32.903 10.4959 32.112 9.67749 31.136 9.67749ZM31.136 10.4745C31.6856 10.4745 32.1327 10.937 32.1327 11.5056V27.3241C32.1327 27.8926 31.6856 28.3552 31.136 28.3552H8.86381C8.31422 28.3552 7.8671 27.8926 7.8671 27.3241V11.5056C7.8671 10.937 8.31422 10.4745 8.86381 10.4745H31.136Z" fill="white"/>
<path d="M24.3206 17.2973H15.6542C13.4207 17.2973 11.61 19.1705 11.61 21.4811C11.61 23.7917 13.4207 25.6649 15.6542 25.6649H24.3206C26.5542 25.6649 28.3648 23.7917 28.3648 21.4811C28.3648 19.1705 26.5542 17.2973 24.3206 17.2973ZM24.3206 18.0942C26.1258 18.0942 27.5945 19.6137 27.5945 21.4811C27.5945 23.3487 26.1258 24.8679 24.3206 24.8679H15.6542C13.849 24.8679 12.3803 23.3487 12.3803 21.4811C12.3803 19.6137 13.849 18.0942 15.6542 18.0942H24.3206ZM10.3706 11.0225C9.67929 11.0225 9.1189 11.6022 9.1189 12.3173C9.1189 13.0326 9.67929 13.6123 10.3706 13.6123C11.062 13.6123 11.6224 13.0326 11.6224 12.3173C11.6224 11.6022 11.062 11.0225 10.3706 11.0225ZM10.3706 11.8193C10.6361 11.8193 10.8521 12.0428 10.8521 12.3173C10.8521 12.592 10.6361 12.8155 10.3706 12.8155C10.1052 12.8155 9.88919 12.592 9.88919 12.3173C9.88919 12.0428 10.1052 11.8193 10.3706 11.8193ZM13.7409 11.0225C13.0495 11.0225 12.4891 11.6022 12.4891 12.3173C12.4891 13.0326 13.0495 13.6123 13.7409 13.6123C14.4322 13.6123 14.9927 13.0326 14.9927 12.3173C14.9927 11.6022 14.4322 11.0225 13.7409 11.0225ZM13.7409 11.8193C14.0063 11.8193 14.2223 12.0428 14.2223 12.3173C14.2223 12.592 14.0063 12.8155 13.7409 12.8155C13.4754 12.8155 13.2594 12.592 13.2594 12.3173C13.2594 12.0428 13.4754 11.8193 13.7409 11.8193ZM17.0148 11.0225C16.3234 11.0225 15.763 11.6022 15.763 12.3173C15.763 13.0326 16.3234 13.6123 17.0148 13.6123C17.7061 13.6123 18.2667 13.0326 18.2667 12.3173C18.2667 11.6022 17.7061 11.0225 17.0148 11.0225ZM17.0148 11.8193C17.2803 11.8193 17.4962 12.0428 17.4962 12.3173C17.4962 12.592 17.2803 12.8155 17.0148 12.8155C16.7493 12.8155 16.5333 12.592 16.5333 12.3173C16.5333 12.0428 16.7493 11.8193 17.0148 11.8193Z" fill="white"/>
<path d="M15.3138 19.3083C15.742 19.3083 16.0545 19.4023 16.2513 19.59C16.448 19.7775 16.5464 20.0328 16.5464 20.3558C16.5464 20.7268 16.3958 21.0023 16.0948 21.1822C16.307 21.2899 16.4546 21.4145 16.5374 21.5563C16.6205 21.6979 16.6621 21.8724 16.6621 22.08C16.6621 22.8263 16.2319 23.1994 15.3714 23.1994H14.4802C14.2374 23.1994 14.061 23.1426 13.9511 23.0288C13.841 22.9151 13.7861 22.7325 13.7861 22.4809V20.0268C13.7861 19.7754 13.841 19.5928 13.9511 19.479C14.061 19.3653 14.2374 19.3083 14.4802 19.3083H15.3138ZM14.5616 21.5533V22.2717C14.5616 22.3914 14.6194 22.4511 14.735 22.4511H15.3714C15.7073 22.4511 15.8752 22.3055 15.8752 22.0143C15.8752 21.7069 15.7073 21.5533 15.3714 21.5533H14.5616ZM14.735 20.0566C14.6194 20.0566 14.5616 20.1165 14.5616 20.236V20.8646H15.3138C15.6109 20.8646 15.7594 20.7271 15.7594 20.4519C15.7594 20.1885 15.6109 20.0566 15.3138 20.0566H14.735Z" fill="white"/>
<path d="M19.1619 21.4633C19.1619 21.3595 19.1522 21.2709 19.1331 21.1971C19.1138 21.1231 19.081 21.0623 19.0347 21.0147C18.9883 20.9667 18.9255 20.9308 18.8464 20.9067C18.7676 20.8828 18.6663 20.8708 18.5429 20.8708C18.2957 20.8708 18.1288 20.9178 18.0421 21.0116C17.9553 21.1051 17.9119 21.2557 17.9119 21.4633V21.9423C17.9119 22.15 17.9553 22.3008 18.0421 22.3946C18.1288 22.4881 18.2957 22.5349 18.5429 22.5349C18.6663 22.5349 18.7676 22.523 18.8464 22.4989C18.9255 22.475 18.9883 22.4392 19.0347 22.3915C19.081 22.3436 19.1138 22.2828 19.1331 22.2091C19.1522 22.1351 19.1619 22.0461 19.1619 21.9423V21.4633ZM18.5429 23.2714C18.0682 23.2714 17.7179 23.1617 17.4921 22.9419C17.2666 22.7224 17.1538 22.3892 17.1538 21.9423V21.4633C17.1538 21.0324 17.2713 20.7031 17.5065 20.4755C17.742 20.2481 18.0874 20.1343 18.5429 20.1343C19.0171 20.1343 19.3652 20.2441 19.5872 20.4637C19.809 20.6834 19.92 21.0166 19.92 21.4633V21.9423C19.92 22.3775 19.8043 22.7078 19.5727 22.9332C19.3412 23.1587 18.9979 23.2714 18.5429 23.2714Z" fill="white"/>
<path d="M22.374 21.4633C22.374 21.3595 22.3644 21.2709 22.3452 21.1971C22.326 21.1231 22.2932 21.0623 22.2469 21.0147C22.2004 20.9667 22.1377 20.9308 22.0586 20.9067C21.9797 20.8828 21.8785 20.8708 21.755 20.8708C21.5079 20.8708 21.3409 20.9178 21.2543 21.0116C21.1674 21.1051 21.1241 21.2557 21.1241 21.4633V21.9423C21.1241 22.15 21.1674 22.3008 21.2543 22.3946C21.3409 22.4881 21.5079 22.5349 21.755 22.5349C21.8785 22.5349 21.9797 22.523 22.0586 22.4989C22.1377 22.475 22.2004 22.4392 22.2469 22.3915C22.2932 22.3436 22.326 22.2828 22.3452 22.2091C22.3644 22.1351 22.374 22.0461 22.374 21.9423V21.4633ZM21.755 23.2714C21.2803 23.2714 20.9301 23.1617 20.7043 22.9419C20.4787 22.7224 20.366 22.3892 20.366 21.9423V21.4633C20.366 21.0324 20.4835 20.7031 20.7187 20.4755C20.9542 20.2481 21.2996 20.1343 21.755 20.1343C22.2292 20.1343 22.5774 20.2441 22.7993 20.4637C23.0211 20.6834 23.1322 21.0166 23.1322 21.4633V21.9423C23.1322 22.3775 23.0164 22.7078 22.7849 22.9332C22.5534 23.1587 22.2101 23.2714 21.755 23.2714Z" fill="white"/>
<path d="M23.6941 19.3441C23.6941 19.2085 23.7152 19.1188 23.7577 19.0748C23.8 19.0306 23.887 19.0085 24.0185 19.0085H24.1223C24.2535 19.0085 24.3402 19.0306 24.3827 19.0748C24.425 19.1188 24.4463 19.2085 24.4463 19.3441V22.8641C24.4463 22.9998 24.425 23.0896 24.3827 23.1334C24.3402 23.1774 24.2535 23.1992 24.1223 23.1992H24.0185C23.887 23.1992 23.8 23.1774 23.7577 23.1334C23.7152 23.0896 23.6941 22.9998 23.6941 22.8641V19.3441ZM25.3375 20.4635C25.3763 20.4115 25.4138 20.3684 25.4503 20.3345C25.4871 20.3006 25.5246 20.2748 25.5631 20.2569C25.6018 20.2392 25.6452 20.2263 25.6932 20.2184C25.7415 20.2101 25.7986 20.206 25.8641 20.206H26.1538C26.2849 20.206 26.3571 20.223 26.3704 20.2569C26.3839 20.2908 26.3503 20.3597 26.2695 20.4635L25.5114 21.4215C25.4379 21.5014 25.4011 21.5672 25.4011 21.6189C25.4011 21.6628 25.4359 21.7267 25.5054 21.8106L26.3907 22.9356C26.4718 23.0394 26.5046 23.1093 26.4891 23.1453C26.4738 23.1812 26.4007 23.1992 26.2695 23.1992H25.9799C25.9143 23.1992 25.8573 23.1954 25.809 23.1874C25.7609 23.1792 25.7176 23.1652 25.6788 23.1453C25.6403 23.1255 25.6028 23.0985 25.566 23.0646C25.5295 23.0307 25.492 22.9877 25.4533 22.9356L24.869 22.1816C24.7186 21.9902 24.6435 21.7945 24.6435 21.5947C24.6435 21.495 24.6599 21.4084 24.6927 21.3346C24.7255 21.2606 24.7842 21.1699 24.869 21.0623L25.3375 20.4635Z" fill="white"/>
<path d="M24.5558 28.1176L23.0511 29.0164C23.0334 29.0269 23.0159 29.0322 22.9977 29.0322C22.9693 29.0322 22.9397 29.0191 22.9187 28.9972C22.8984 28.9762 22.8885 28.9506 22.8887 28.919L22.9023 23.5862C22.9026 23.5094 22.9675 23.4736 23.0114 23.4736C23.0294 23.4736 23.0469 23.4788 23.0645 23.4893L27.5358 26.1434C27.5806 26.1702 27.5902 26.2109 27.5902 26.2404C27.5902 26.27 27.5809 26.3109 27.536 26.3377L26.0703 27.2132L27.3572 29.519L25.8428 30.4235L24.5558 28.1176Z" fill="white"/>
<path d="M23.0115 23.0752C22.7542 23.0752 22.5181 23.2878 22.5173 23.5852L22.5037 28.918C22.5029 29.2166 22.7396 29.4306 22.9979 29.4306C23.08 29.4306 23.1643 29.4089 23.2439 29.3614L24.415 28.6619L25.7018 30.9678L27.8834 29.6648L26.5966 27.3589L27.7287 26.6828C28.0582 26.486 28.0576 25.9937 27.7276 25.7978L23.2563 23.1437C23.1772 23.0967 23.0932 23.0752 23.0115 23.0752ZM23.2864 24.0803L26.927 26.2415L26.2114 26.6688L25.5442 27.0672L25.9294 27.7575L26.8312 29.3732L25.9839 29.8792L25.0822 28.2634L24.6969 27.5733L24.0298 27.9718L23.2752 28.4224L23.2864 24.0803Z" fill="white"/>
<path d="M32.9032 14.8076H7.19312V14.1104H32.9032V14.8076Z" fill="white"/>
<path d="M32.9032 14.1104H7.19312V14.8076H32.9032V14.1104Z" fill="white"/>
<rect x="1.5" y="1.5" width="37" height="37" rx="18.5" stroke="white" stroke-width="3"/>
</svg>
