<svg width="48" height="48" viewBox="0 0 48 48" fill="none" xmlns="http://www.w3.org/2000/svg">
<g clip-path="url(#clip0_439_1187)">
<path d="M36.9491 26.238H36.9719C37.6812 26.8266 38.591 27.1524 39.5337 27.1554C39.6543 27.1554 39.7748 27.1493 39.896 27.1385C40.4939 27.6889 41.2938 27.9977 42.1272 28C42.9606 28.0023 43.7624 27.6978 44.3636 27.1506C44.6976 27.1312 45.0238 27.0461 45.3213 26.9007C45.6188 26.7554 45.8811 26.5529 46.0916 26.3062C46.5813 26.1988 47.0407 25.9922 47.4382 25.7005L47.4952 25.7012C48.876 25.7012 50 24.6269 50 23.3065C50.001 22.7712 49.8127 22.2511 49.4652 21.8291C49.1177 21.4072 48.631 21.1078 48.0829 20.9789C47.7557 20.5776 47.3359 20.2528 46.8558 20.0291C46.3756 19.8053 45.8478 19.6888 45.3128 19.6882C44.4071 19.6882 43.5491 20.027 42.9065 20.6084C42.6641 20.5997 42.4216 20.6234 42.1861 20.6787C41.7907 20.3271 41.3217 20.0584 40.8096 19.8899C40.2975 19.7213 39.7537 19.6568 39.2135 19.7004C38.9889 19.4781 38.7189 19.3013 38.42 19.1809C38.1211 19.0605 37.7995 18.999 37.4747 19C36.1532 19 35.0762 20.0155 35.052 21.2729C34.7236 21.538 34.4595 21.8672 34.278 22.2381C34.0964 22.6089 34.0016 23.0126 34 23.4215C33.9986 24.9751 35.323 26.238 36.9491 26.238ZM36.5996 21.9294C36.4596 21.7532 36.3835 21.5388 36.3828 21.3182C36.3851 21.0595 36.4898 20.811 36.6762 20.6219C36.8625 20.4328 37.117 20.3169 37.3892 20.2971C37.6613 20.2773 37.9314 20.355 38.1461 20.515C38.3607 20.6749 38.5041 20.9053 38.5481 21.1607C38.8604 21.0374 39.1954 20.974 39.5337 20.9741C40.5465 20.9741 41.4152 21.5319 41.8388 22.3344C41.9551 22.1969 42.1024 22.0859 42.2699 22.0095C42.4373 21.9331 42.6208 21.8933 42.8066 21.8929C43.027 21.8929 43.2303 21.9517 43.4107 22.0464C43.5974 21.7229 43.8723 21.4528 44.2066 21.2644C44.5409 21.0759 44.9224 20.9759 45.3114 20.9748C46.2072 20.9748 46.9739 21.4866 47.3105 22.2167C47.3704 22.2073 47.4318 22.1992 47.4945 22.1992C47.6524 22.1928 47.81 22.2167 47.9578 22.2695C48.1056 22.3224 48.2407 22.4031 48.3548 22.5067C48.4688 22.6103 48.5596 22.7347 48.6216 22.8725C48.6837 23.0102 48.7156 23.1585 48.7156 23.3082C48.7156 23.458 48.6837 23.6062 48.6216 23.744C48.5596 23.8817 48.4688 24.0062 48.3548 24.1098C48.2407 24.2134 48.1056 24.2941 47.9578 24.3469C47.81 24.3998 47.6524 24.4237 47.4945 24.4173C47.3226 24.4173 47.1607 24.3808 47.0145 24.3186C46.8121 24.5637 46.5537 24.762 46.2586 24.8985C45.9636 25.0351 45.6397 25.1063 45.3114 25.1069C45.2986 25.1069 45.2857 25.1028 45.2707 25.1028C45.2311 25.2453 45.1598 25.378 45.0615 25.4921C44.9633 25.6062 44.8404 25.699 44.7011 25.7642C44.5618 25.8295 44.4094 25.8657 44.2541 25.8705C44.0988 25.8752 43.9443 25.8484 43.8008 25.7918C43.6348 26.0716 43.3933 26.3046 43.1011 26.467C42.8088 26.6294 42.4764 26.7153 42.1376 26.7159C41.7828 26.7153 41.4351 26.6211 41.1335 26.4439C40.8318 26.2668 40.5881 26.0136 40.4295 25.7127C40.1429 25.8163 39.839 25.8703 39.5323 25.8722C39.1275 25.8718 38.7285 25.7809 38.3677 25.6068C38.007 25.4327 37.6947 25.1804 37.4562 24.8703C37.2925 24.9239 37.1208 24.9524 36.9477 24.9548C36.7355 24.955 36.5253 24.9155 36.3292 24.8387C36.1331 24.7618 35.9549 24.6491 35.8047 24.507C35.6546 24.3649 35.5355 24.1961 35.4541 24.0103C35.3728 23.8245 35.3309 23.6253 35.3308 23.4242C35.3316 23.0754 35.4576 22.7373 35.6883 22.4656C35.9189 22.1938 36.2404 22.0047 36.5996 21.9294Z" fill="white"/>
<g filter="url(#filter0_d_439_1187)">
<path d="M44.0225 24.5912C44.2516 24.5912 44.4691 24.544 44.6759 24.476C44.9878 24.9029 45.3914 25.2489 45.8548 25.4868C46.3182 25.7247 46.8287 25.8479 47.346 25.8466C47.7394 25.8439 48.1292 25.77 48.498 25.6282C48.7076 26.0432 49.0233 26.3906 49.4107 26.6325C49.7982 26.8744 50.2424 27.0015 50.6949 27C51.1269 27.0009 51.5517 26.8846 51.9267 26.6628C52.3017 26.441 52.614 26.1214 52.8325 25.7358C52.998 25.806 53.1815 25.8455 53.3724 25.8455C54.0206 25.8455 54.5626 25.4 54.7218 24.7964C54.7409 24.7964 54.7568 24.8019 54.7737 24.8019C55.6659 24.8019 56.4477 24.375 56.9622 23.7243C57.1499 23.8088 57.3579 23.8592 57.5775 23.8592C58.2405 23.8592 58.7963 23.4258 59 22.8277C58.7804 22.9261 58.5442 22.9785 58.305 22.9819C58.0657 22.9853 57.8282 22.9396 57.6061 22.8475C57.0407 23.4993 56.1793 23.9229 55.1991 23.9229C55.179 23.9229 55.1609 23.9185 55.1397 23.9185C54.9658 24.5221 54.3706 24.9687 53.6567 24.9687C53.4456 24.9687 53.2441 24.9281 53.0627 24.859C52.5948 25.6107 51.7229 26.1221 50.7098 26.1221C49.65 26.1221 48.743 25.5602 48.2954 24.7492C47.8869 24.8919 47.4589 24.966 47.0277 24.9687C45.8195 24.9687 44.7534 24.4255 44.0903 23.5981C43.8612 23.6672 43.6236 23.7133 43.3701 23.7133C42.9171 23.7133 42.496 23.5893 42.1406 23.3786C42.3121 23.7435 42.5797 24.0508 42.9127 24.2654C43.2456 24.4799 43.6302 24.5928 44.0225 24.5912ZM4.42251 16.5594C4.54875 16.5594 4.67498 16.5528 4.80016 16.5407C5.65575 17.2924 6.68616 17.8 7.78951 18.0134C8.18072 18.5832 8.69769 19.0482 9.29749 19.3698C9.8973 19.6914 10.5626 19.8603 11.2382 19.8625H11.2753C11.8344 20.476 12.5099 20.9632 13.2597 21.2937C14.0094 21.6243 14.817 21.7909 15.6319 21.7831C16.4469 21.7754 17.2514 21.5935 17.9952 21.2488C18.7389 20.9042 19.4057 20.4042 19.9538 19.7802C21.0511 19.9492 22.1712 19.8554 23.228 19.5061C24.2847 19.1568 25.2499 18.5613 26.0492 17.7654C26.1595 17.7742 26.272 17.7775 26.3812 17.7775C29.3313 17.7775 31.7309 15.282 31.7309 12.2137C31.7309 10.4107 30.8748 8.75693 29.5339 7.73087C29.5403 7.63211 29.5435 7.53334 29.5435 7.43348C29.5435 4.98849 27.6351 3.00001 25.2886 3.00001C24.6553 2.99835 24.0297 3.14428 23.4584 3.42697C22.8871 3.70966 22.3847 4.12185 21.9884 4.63293C20.8398 4.46841 19.6697 4.59011 18.5757 4.9879C17.4817 5.3857 16.4954 6.04808 15.6989 6.9199C15.0512 6.68076 14.3592 6.59818 13.6759 6.67847C13.0718 6.01226 12.3423 5.4809 11.5323 5.11705C10.7223 4.7532 9.84899 4.56455 8.96595 4.5627C6.83054 4.5627 4.86062 5.64692 3.6513 7.41373C2.62536 7.60847 1.69799 8.16941 1.03077 8.99881C0.363543 9.82821 -0.00123023 10.8735 3.11736e-06 11.9525C3.11736e-06 14.493 1.98371 16.5594 4.42251 16.5594ZM4.42251 9.43183C4.55193 9.43183 4.67923 9.45049 4.80334 9.47134C5.15682 8.63335 5.73889 7.92022 6.47825 7.41928C7.2176 6.91835 8.08214 6.65136 8.96595 6.65104C10.676 6.65104 12.1505 7.63979 12.9238 9.08505C13.3081 8.86016 13.7415 8.74043 14.183 8.73718C14.57 8.73812 14.9518 8.82881 15.3005 9.00259C15.6491 9.17636 15.9556 9.42879 16.1975 9.74129C17.0811 7.91743 18.8887 6.65214 20.9976 6.65214C21.7253 6.65214 22.417 6.80577 23.0503 7.07573C23.1342 6.4885 23.4302 5.95602 23.8786 5.58569C24.3271 5.21536 24.8946 5.03475 25.4668 5.08028C26.0389 5.1258 26.573 5.39409 26.9615 5.83101C27.3499 6.26793 27.5637 6.84098 27.5598 7.43458C27.5598 7.95803 27.3879 8.4343 27.1079 8.82497C27.918 9.0081 28.634 9.49479 29.118 10.1913C29.602 10.8879 29.8198 11.745 29.7294 12.5978C29.6391 13.4505 29.247 14.2385 28.6286 14.81C28.0103 15.3816 27.2094 15.6963 26.3802 15.6936C26.0198 15.6888 25.6627 15.6235 25.3225 15.5004C24.8256 16.2053 24.175 16.7789 23.4235 17.1748C22.6721 17.5706 21.8409 17.7775 20.9976 17.7786C20.3378 17.7786 19.7141 17.6392 19.1295 17.4143C18.7994 18.0985 18.2918 18.6742 17.6634 19.0771C17.0351 19.48 16.3108 19.6942 15.5716 19.6957C14.8665 19.6942 14.1745 19.4989 13.5663 19.1298C12.9581 18.7608 12.4556 18.2312 12.1102 17.5953C11.8333 17.7153 11.5362 17.7772 11.2361 17.7775C10.7363 17.7761 10.2509 17.6042 9.85517 17.2883C9.45948 16.9724 9.17562 16.5303 9.04763 16.0304C9.01899 16.0315 8.99141 16.0392 8.96383 16.0392C7.52113 16.0392 6.25134 15.3314 5.41861 14.2483C5.08677 14.4047 4.72523 14.4822 4.36062 14.4749C3.99601 14.4677 3.63762 14.3759 3.31186 14.2063C2.9861 14.0367 2.70126 13.7937 2.47834 13.4951C2.25542 13.1966 2.10009 12.8501 2.02379 12.4812C1.9475 12.1123 1.95219 11.7304 2.03751 11.3636C2.12283 10.9968 2.28661 10.6545 2.51679 10.3619C2.74697 10.0693 3.03768 9.8338 3.3675 9.67284C3.69731 9.51188 4.05784 9.42952 4.42251 9.43183Z" fill="white"/>
</g>
<path d="M2.79275 10.7963C3.0384 10.7963 3.2696 10.7346 3.4804 10.6263C3.77801 11.054 4.15133 11.398 4.57365 11.6339C4.99596 11.8697 5.45684 11.9915 5.9233 11.9905C5.942 11.9905 5.96155 11.9835 5.9811 11.9824C6.15875 12.7475 6.7631 13.3122 7.48815 13.3122C7.6998 13.3122 7.90465 13.2627 8.09165 13.1756C8.33858 13.6657 8.68845 14.0708 9.10681 14.351C9.52517 14.6312 9.9976 14.7768 10.4776 14.7736C10.9803 14.7772 11.4742 14.6173 11.9061 14.311C12.338 14.0048 12.6914 13.5639 12.9282 13.036C13.6772 13.3663 14.4953 13.4029 15.2631 13.1406C16.0308 12.8782 16.7081 12.3306 17.196 11.5776C17.4272 11.6637 17.6703 11.7244 17.9261 11.7244C19.0371 11.7244 19.9627 10.8297 20.1905 9.63758C19.743 9.96527 19.2276 10.1377 18.7022 10.1355C18.4174 10.1355 18.1497 10.0748 17.8938 9.98774C17.1467 11.0342 15.9524 11.7223 14.5942 11.7223C14.1101 11.7195 13.6294 11.6263 13.1695 11.4461C12.6655 12.4723 11.6472 13.1837 10.4555 13.1837C9.31735 13.1837 8.33985 12.534 7.81625 11.5847C7.60158 11.6761 7.37527 11.7226 7.1473 11.7223C6.34405 11.7223 5.67595 11.1556 5.4796 10.3925C5.45665 10.3946 5.4371 10.4006 5.415 10.4006C4.3134 10.4006 3.34695 9.86022 2.70945 9.03643C2.46648 9.1482 2.20832 9.20583 1.94785 9.20645C1.65035 9.20645 1.37325 9.12752 1.1225 9C1.17945 10.0009 1.90195 10.7963 2.79275 10.7963ZM34.1144 36.7801L25.5243 19.5524L24.2493 16.996L22.8536 19.4593L18.0545 27.9218L11.3438 33.5123L10.9961 33.8017L10.8133 34.2632L7.4737 42.663L4.02355 44.7387L-3 56.9012V60H48V55.8365L42.6696 44.9633L34.1144 36.7801ZM5.09455 46.2446L8.66965 44.094L11.4508 52.422L5.09455 46.2446ZM19.1315 54.5948L20.3232 45.9035L11.4508 43.7317L21.3831 39.8668L19.1978 29.3053L24.1635 20.5482L22.8391 27.8004L26.4151 33.5932L22.0444 33.3524L28.4016 38.8315L23.6347 42.5274L19.1315 54.5948ZM36.0821 50.0761L26.9446 54.5948L33.3018 48.5591L37.7014 42.663L41.4457 46.2446L36.0821 50.0761Z" fill="white"/>
</g>
<rect x="0.5" y="0.5" width="47" height="47" rx="23.5" stroke="white"/>
<defs>
<filter id="filter0_d_439_1187" x="-4" y="3" width="67" height="32" filterUnits="userSpaceOnUse" color-interpolation-filters="sRGB">
<feFlood flood-opacity="0" result="BackgroundImageFix"/>
<feColorMatrix in="SourceAlpha" type="matrix" values="0 0 0 0 0 0 0 0 0 0 0 0 0 0 0 0 0 0 127 0" result="hardAlpha"/>
<feOffset dy="4"/>
<feGaussianBlur stdDeviation="2"/>
<feComposite in2="hardAlpha" operator="out"/>
<feColorMatrix type="matrix" values="0 0 0 0 0 0 0 0 0 0 0 0 0 0 0 0 0 0 0.25 0"/>
<feBlend mode="normal" in2="BackgroundImageFix" result="effect1_dropShadow_439_1187"/>
<feBlend mode="normal" in="SourceGraphic" in2="effect1_dropShadow_439_1187" result="shape"/>
</filter>
<clipPath id="clip0_439_1187">
<rect width="48" height="48" rx="24" fill="white"/>
</clipPath>
</defs>
</svg>
