<svg width="130" height="138" viewBox="0 0 130 138" fill="none" xmlns="http://www.w3.org/2000/svg">
<g clip-path="url(#clip0_153_1018)">
<path d="M115.556 19.1667H14.4444C10.6135 19.1667 6.93954 20.7822 4.23068 23.6578C1.52182 26.5333 0 30.4334 0 34.5001L0 103.5C0 107.567 1.52182 111.467 4.23068 114.342C6.93954 117.218 10.6135 118.833 14.4444 118.833H115.556C119.386 118.833 123.06 117.218 125.769 114.342C128.478 111.467 130 107.567 130 103.5V34.5001C130 30.4334 128.478 26.5333 125.769 23.6578C123.06 20.7822 119.386 19.1667 115.556 19.1667Z" fill="#DA251D"/>
<path d="M71.3303 61.4753L65 40.7944L58.6697 61.4753H38.1875L54.7589 74.2518L48.4286 94.9326L65 82.1523L81.5714 94.9326L75.2411 74.2518L91.8125 61.4753H71.3303Z" fill="#FFFF00"/>
</g>
<defs>
<clipPath id="clip0_153_1018">
<rect width="130" height="138" fill="white"/>
</clipPath>
</defs>
</svg>
