<svg width="130" height="138" viewBox="0 0 130 138" fill="none" xmlns="http://www.w3.org/2000/svg">
<g clip-path="url(#clip0_153_1488)">
<path d="M115.556 19.1667H61.3889V69.0001H0V103.5C0 107.567 1.52182 111.467 4.23068 114.342C6.93954 117.218 10.6135 118.833 14.4444 118.833H115.556C119.386 118.833 123.06 117.218 125.769 114.342C128.478 111.467 130 107.567 130 103.5V34.5001C130 30.4334 128.478 26.5333 125.769 23.6578C123.06 20.7822 119.386 19.1667 115.556 19.1667Z" fill="#FE0000"/>
<path d="M61.3889 19.1667H14.4444C10.6135 19.1667 6.93954 20.7822 4.23068 23.6578C1.52182 26.5333 0 30.4334 0 34.5001L0 69.0001H61.3889V19.1667ZM39.4947 36.8384L46.8433 34.7378L41.4592 40.4379C41.0251 39.1168 40.3584 37.8953 39.4947 36.8384ZM40.4011 44.0834C40.4011 45.3107 40.1734 46.526 39.731 47.6598C39.2885 48.7937 38.64 49.824 37.8225 50.6918C37.005 51.5596 36.0345 52.248 34.9663 52.7177C33.8982 53.1874 32.7534 53.4291 31.5972 53.4291C30.4411 53.4291 29.2963 53.1874 28.2281 52.7177C27.16 52.248 26.1895 51.5596 25.3719 50.6918C24.5544 49.824 23.9059 48.7937 23.4635 47.6598C23.0211 46.526 22.7933 45.3107 22.7933 44.0834C22.7933 41.6048 23.7209 39.2277 25.3719 37.475C27.023 35.7224 29.2623 34.7378 31.5972 34.7378C33.9322 34.7378 36.1715 35.7224 37.8225 37.475C39.4736 39.2277 40.4011 41.6048 40.4011 44.0834ZM40.4011 27.8991L38.4222 35.6999C37.4271 34.7823 36.2763 34.0746 35.0314 33.6146L40.4011 27.8991ZM31.5972 25.3959L33.5544 33.1929C32.9225 33.0664 32.2653 32.9936 31.5972 32.9936C30.9292 32.9936 30.2719 33.0664 29.64 33.1929L31.5972 25.3959ZM28.1631 33.6146C26.9185 34.0754 25.7679 34.7831 24.7722 35.6999L22.7933 27.8991L28.1631 33.6146ZM23.6997 36.8384C22.8353 37.8948 22.1686 39.1164 21.7353 40.4379L16.3511 34.7378L23.6997 36.8384ZM21.3381 42.0057C21.088 43.3781 21.088 44.7887 21.3381 46.1611L13.9931 44.0834L21.3381 42.0057ZM21.7353 47.7251C22.1722 49.0591 22.8475 50.2781 23.6997 51.3246L16.3511 53.4253L21.7353 47.7251ZM22.7933 60.2677L24.7722 52.4669C25.7581 53.3716 26.9064 54.0884 28.1631 54.5522L22.7933 60.2677ZM31.5972 62.7709L29.64 54.9739C30.9328 55.2394 32.2616 55.2394 33.5544 54.9739L31.5972 62.7709ZM35.0314 54.5522C36.2881 54.0884 37.4364 53.3716 38.4222 52.4669L40.4011 60.2677L35.0314 54.5522ZM39.4947 51.3284C40.3506 50.2819 41.0222 49.0629 41.4592 47.7289L46.8433 53.4291L39.4947 51.3284ZM41.8564 46.1611C42.1065 44.7887 42.1065 43.3781 41.8564 42.0057L49.2014 44.0834L41.8564 46.1611Z" fill="#000095"/>
<path d="M33.5546 33.1928L31.5973 25.3958L29.6401 33.1928C30.2721 33.0663 30.9293 32.9934 31.5973 32.9934C32.2654 32.9934 32.9226 33.0663 33.5546 33.1928ZM21.1504 44.0833C21.1504 43.3741 21.2154 42.6764 21.3382 42.0056L13.9932 44.0833L21.3382 46.1609C21.215 45.4761 21.1521 44.7805 21.1504 44.0833ZM29.6401 54.9737L31.5973 62.7708L33.5546 54.9737C32.2617 55.2392 30.9329 55.2392 29.6401 54.9737ZM42.0443 44.0833C42.0443 44.7924 41.9793 45.4901 41.8565 46.1609L49.2015 44.0833L41.8565 42.0056C41.9757 42.6764 42.0443 43.3741 42.0443 44.0833ZM40.4012 27.8989L35.0315 33.6144C36.2882 34.0821 37.4365 34.7951 38.4223 35.6998L40.4012 27.8989ZM39.4948 51.3283L46.8434 53.4289L41.4593 47.7288C41.0252 49.0499 40.3585 50.2713 39.4948 51.3283ZM22.7934 60.2676L28.1632 54.5521C26.9189 54.0906 25.7684 53.383 24.7723 52.4668L22.7934 60.2676ZM23.6998 36.8383L16.3512 34.7376L21.7354 40.4378C22.1723 39.1038 22.844 37.8886 23.6998 36.8383ZM35.0315 54.5521L40.4012 60.2676L38.4223 52.4668C37.4267 53.3836 36.276 54.0913 35.0315 54.5521ZM21.7354 47.7249L16.3512 53.4251L23.6998 51.3244C22.8346 50.2687 22.1678 49.0468 21.7354 47.7249ZM28.1632 33.6144L22.7934 27.8989L24.7723 35.6998C25.7618 34.7913 26.9065 34.0783 28.1632 33.6144ZM46.8434 34.7376L39.4948 36.8383C40.3507 37.8848 41.0223 39.1038 41.4593 40.4378L46.8434 34.7376Z" fill="white"/>
<path d="M31.5971 53.4289C36.4594 53.4289 40.401 49.2447 40.401 44.0832C40.401 38.9217 36.4594 34.7375 31.5971 34.7375C26.7348 34.7375 22.7932 38.9217 22.7932 44.0832C22.7932 49.2447 26.7348 53.4289 31.5971 53.4289Z" fill="white"/>
</g>
<defs>
<clipPath id="clip0_153_1488">
<rect width="130" height="138" fill="white"/>
</clipPath>
</defs>
</svg>
