<svg width="130" height="138" viewBox="0 0 130 138" fill="none" xmlns="http://www.w3.org/2000/svg">
<g clip-path="url(#clip0_153_1480)">
<path d="M130 103.5C130 107.567 128.478 111.467 125.769 114.342C123.06 117.218 119.386 118.833 115.556 118.833H14.4444C10.6135 118.833 6.93954 117.218 4.23068 114.342C1.52182 111.467 0 107.567 0 103.5V34.5001C0 30.4334 1.52182 26.5333 4.23068 23.6578C6.93954 20.7822 10.6135 19.1667 14.4444 19.1667H115.556C119.386 19.1667 123.06 20.7822 125.769 23.6578C128.478 26.5333 130 30.4334 130 34.5001V103.5Z" fill="#EEEEEE"/>
<path d="M64.9999 95.8334C78.9605 95.8334 90.2777 83.8197 90.2777 69.0001C90.2777 54.1804 78.9605 42.1667 64.9999 42.1667C51.0394 42.1667 39.7222 54.1804 39.7222 69.0001C39.7222 83.8197 51.0394 95.8334 64.9999 95.8334Z" fill="#ED1B2F"/>
</g>
<defs>
<clipPath id="clip0_153_1480">
<rect width="130" height="138" fill="white"/>
</clipPath>
</defs>
</svg>
