<svg width="130" height="138" viewBox="0 0 130 138" fill="none" xmlns="http://www.w3.org/2000/svg">
<g clip-path="url(#clip0_153_1484)">
<path d="M130 103.5C130 107.567 128.478 111.467 125.769 114.342C123.06 117.218 119.386 118.833 115.556 118.833H14.4444C10.6135 118.833 6.93954 117.218 4.23068 114.342C1.52182 111.467 0 107.567 0 103.5V34.5001C0 30.4334 1.52182 26.5333 4.23068 23.6578C6.93954 20.7822 10.6135 19.1667 14.4444 19.1667H115.556C119.386 19.1667 123.06 20.7822 125.769 23.6578C128.478 26.5333 130 30.4334 130 34.5001V103.5Z" fill="#DE2910"/>
<path d="M40.2133 34.4119L42.8711 35.7766L44.998 33.6069L44.5972 36.7119L47.1972 38.1916L44.2938 38.7436L43.7738 41.8256L42.38 39.0656L39.455 39.4911L41.4988 37.2333L40.2133 34.4119ZM57.0591 45.6858L55.7736 48.5033L57.8175 50.7649L54.8961 50.3356L53.5022 53.0994L52.9822 50.0136L50.0752 49.4616L52.6789 47.9819L52.2744 44.8808L54.405 47.0504L57.0591 45.6858ZM53.6033 60.1719L54.5711 63.1313L57.5213 63.1964L55.1705 65.0863L56.0264 68.0878L53.6033 66.2976L51.1802 68.0878L52.0325 65.0863L49.6816 63.1964L52.6319 63.1313L53.6033 60.1719ZM40.2133 72.7453L42.8711 74.1099L44.998 71.9403L44.5972 75.0453L47.1972 76.5249L44.2938 77.0769L43.7738 80.1589L42.38 77.3989L39.455 77.8244L41.4988 75.5666L40.2133 72.7453ZM25.2777 41.9789L28.6325 52.2178L38.8375 52.4401L30.7016 58.9874L33.6591 69.3604L25.2777 63.1696L16.8964 69.3604L19.8539 58.9874L11.718 52.4401L21.923 52.2178L25.2777 41.9789Z" fill="#FFDE02"/>
</g>
<defs>
<clipPath id="clip0_153_1484">
<rect width="130" height="138" fill="white"/>
</clipPath>
</defs>
</svg>
