<svg width="41" height="41" viewBox="0 0 41 41" fill="none" xmlns="http://www.w3.org/2000/svg">
<path d="M39.2816 12.2113V28.5493C39.2816 31.2575 38.2057 33.8548 36.2907 35.7698C34.3758 37.6847 31.7785 38.7606 29.0703 38.7606H12.7323C10.0241 38.7606 7.42679 37.6847 5.51181 35.7698C3.59682 33.8548 2.521 31.2575 2.521 28.5493V12.2113C2.521 9.50307 3.59682 6.9058 5.51181 4.99081C7.42679 3.07583 10.0241 2 12.7323 2H29.0703C31.7785 2 34.3758 3.07583 36.2907 4.99081C38.2057 6.9058 39.2816 9.50307 39.2816 12.2113Z" stroke="#FAFAFA" stroke-width="3.125" stroke-linecap="round" stroke-linejoin="round"/>
<g clip-path="url(#clip0_444_1292)">
<path d="M21.8325 18.7697V18.2541H23.3759V25.4981H22.4936C22.319 25.4984 22.1513 25.4294 22.0274 25.3064C21.9035 25.1833 21.8334 25.0162 21.8325 24.8415C21.1882 25.3131 20.4103 25.568 19.6118 25.5668C18.6142 25.5668 17.6575 25.1707 16.9519 24.4655C16.2462 23.7603 15.8495 22.8038 15.8489 21.8062C15.8495 20.8086 16.2462 19.8521 16.9519 19.1469C17.6575 18.4417 18.6142 18.0456 19.6118 18.0456C20.4099 18.0447 21.1885 18.2984 21.8325 18.7697ZM15.449 15.9258V16.1607C15.449 16.5984 15.3906 16.9559 15.1053 17.3753L15.0709 17.4142C14.9758 17.5208 14.8834 17.6297 14.7936 17.7408L9.84016 23.9581H15.449V24.8381C15.449 24.9248 15.4319 25.0108 15.3987 25.0909C15.3654 25.1711 15.3167 25.2439 15.2553 25.3052C15.1939 25.3665 15.121 25.4151 15.0408 25.4482C14.9606 25.4813 14.8746 25.4982 14.7879 25.4981H7.521V25.0833C7.521 24.5757 7.64704 24.3488 7.80745 24.1128L13.0863 17.5758H7.741V15.9258H15.449ZM25.247 25.4981C25.1012 25.4981 24.9613 25.4401 24.8581 25.337C24.755 25.2338 24.697 25.0939 24.697 24.9481V15.9258H26.3482V25.4981H25.247ZM31.2317 17.9997C31.7292 17.9996 32.2218 18.0974 32.6815 18.2877C33.1411 18.4779 33.5588 18.7568 33.9107 19.1084C34.2625 19.4601 34.5417 19.8776 34.7322 20.3372C34.9227 20.7967 35.0208 21.2893 35.021 21.7867C35.0211 22.2842 34.9233 22.7768 34.7331 23.2365C34.5428 23.6961 34.2639 24.1138 33.9123 24.4657C33.5606 24.8175 33.1431 25.0967 32.6836 25.2872C32.224 25.4777 31.7315 25.5758 31.234 25.576C30.2293 25.5763 29.2657 25.1775 28.5551 24.4673C27.8444 23.7571 27.4451 22.7937 27.4447 21.789C27.4444 20.7843 27.8433 19.8207 28.5535 19.1101C29.2636 18.3994 30.2271 18 31.2317 17.9997ZM19.613 24.0188C19.9079 24.0255 20.2011 23.9732 20.4755 23.865C20.7499 23.7568 20.9999 23.5949 21.2108 23.3887C21.4217 23.1825 21.5893 22.9363 21.7037 22.6644C21.8181 22.3926 21.8771 22.1006 21.8771 21.8056C21.8771 21.5107 21.8181 21.2187 21.7037 20.9468C21.5893 20.675 21.4217 20.4287 21.2108 20.2226C20.9999 20.0164 20.7499 19.8544 20.4755 19.7462C20.2011 19.638 19.9079 19.5857 19.613 19.5924C19.0347 19.6056 18.4846 19.8446 18.0803 20.2582C17.676 20.6718 17.4496 21.2272 17.4496 21.8056C17.4496 22.384 17.676 22.9395 18.0803 23.3531C18.4846 23.7667 19.0347 24.0056 19.613 24.0188ZM31.2317 24.0154C31.8228 24.0154 32.3897 23.7806 32.8076 23.3626C33.2256 22.9447 33.4604 22.3778 33.4604 21.7867C33.4604 21.1956 33.2256 20.6288 32.8076 20.2108C32.3897 19.7929 31.8228 19.5581 31.2317 19.5581C30.6407 19.5581 30.0738 19.7929 29.6558 20.2108C29.2379 20.6288 29.0031 21.1956 29.0031 21.7867C29.0031 22.3778 29.2379 22.9447 29.6558 23.3626C30.0738 23.7806 30.6407 24.0154 31.2317 24.0154Z" fill="white"/>
</g>
<defs>
<clipPath id="clip0_444_1292">
<rect width="27.5" height="27.5" fill="white" transform="translate(7.521 7)"/>
</clipPath>
</defs>
</svg>
