<svg width="41" height="41" viewBox="0 0 41 41" fill="none" xmlns="http://www.w3.org/2000/svg">
<path d="M38.5213 12.2113V28.5493C38.5213 31.2575 37.4455 33.8548 35.5305 35.7698C33.6155 37.6847 31.0182 38.7606 28.31 38.7606H11.972C9.26381 38.7606 6.66654 37.6847 4.75155 35.7698C2.83657 33.8548 1.76074 31.2575 1.76074 28.5493V12.2113C1.76074 9.50307 2.83657 6.9058 4.75155 4.99081C6.66654 3.07583 9.26381 2 11.972 2H28.31C31.0182 2 33.6155 3.07583 35.5305 4.99081C37.4455 6.9058 38.5213 9.50307 38.5213 12.2113Z" stroke="#FAFAFA" stroke-width="3.125" stroke-linecap="round" stroke-linejoin="round"/>
<path d="M16.5669 36.208V17.8277C16.5669 13.3593 17.5881 9.65869 24.7359 9.65869M12.4824 19.87H24.7359" stroke="#FAFAFA" stroke-width="3.75" stroke-linecap="round" stroke-linejoin="round"/>
</svg>
