<svg width="41" height="41" viewBox="0 0 41 41" fill="none" xmlns="http://www.w3.org/2000/svg">
<path d="M20.378 28.5455C22.5446 28.5455 24.6224 27.6849 26.1544 26.1529C27.6864 24.6209 28.547 22.5431 28.547 20.3765C28.547 18.21 27.6864 16.1322 26.1544 14.6002C24.6224 13.0682 22.5446 12.2075 20.378 12.2075C18.2114 12.2075 16.1336 13.0682 14.6016 14.6002C13.0696 16.1322 12.209 18.21 12.209 20.3765C12.209 22.5431 13.0696 24.6209 14.6016 26.1529C16.1336 27.6849 18.2114 28.5455 20.378 28.5455Z" stroke="#FAFAFA" stroke-width="3.125" stroke-linecap="round" stroke-linejoin="round"/>
<path d="M2 28.5493V12.2113C2 9.50307 3.07583 6.9058 4.99081 4.99081C6.9058 3.07583 9.50307 2 12.2113 2H28.5493C31.2575 2 33.8548 3.07583 35.7698 4.99081C37.6847 6.9058 38.7606 9.50307 38.7606 12.2113V28.5493C38.7606 31.2575 37.6847 33.8548 35.7698 35.7698C33.8548 37.6847 31.2575 38.7606 28.5493 38.7606H12.2113C9.50307 38.7606 6.9058 37.6847 4.99081 35.7698C3.07583 33.8548 2 31.2575 2 28.5493Z" stroke="#FAFAFA" stroke-width="3.125"/>
<path d="M31.6138 9.15631L31.6298 9.13867" stroke="#FAFAFA" stroke-width="3.125" stroke-linecap="round" stroke-linejoin="round"/>
</svg>
