<svg width="40" height="40" viewBox="0 0 40 40" fill="none" xmlns="http://www.w3.org/2000/svg">
<path d="M32.0972 29.3415C32.0579 29.2879 32.0247 29.228 31.9782 29.1815C29.7264 26.9277 27.4739 24.6745 25.2187 22.4243C25.1228 22.3282 25.0812 22.2336 25.0726 22.0963C24.9519 20.1687 24.8222 18.2416 24.7008 16.3142C24.6917 16.1697 24.6552 16.105 24.5044 16.1295C24.4458 16.139 24.3838 16.1249 24.3247 16.1324C24.2159 16.1462 24.1926 16.0982 24.1936 15.9974C24.1981 15.4714 24.2017 14.9452 24.1922 14.4194C24.19 14.2845 24.2394 14.2717 24.3518 14.2721C25.2382 14.2761 26.1246 14.2705 27.0111 14.2779C27.1717 14.2793 27.2061 14.246 27.181 14.0815C27.1187 13.6736 27.08 13.262 27.0382 12.8513C27.0266 12.7362 26.9846 12.6627 26.8812 12.5985C25.7686 11.9091 24.6598 11.2136 23.5498 10.5198C23.2732 10.3469 23.1852 10.0799 23.328 9.845C23.4767 9.60033 23.7566 9.55092 24.0413 9.72845C25.2374 10.4738 26.4311 11.223 27.6275 11.9677C27.812 12.0825 27.9037 12.2353 27.9256 12.4537C27.9822 13.0165 28.0623 13.577 28.1163 14.14C28.132 14.3034 28.2257 14.2741 28.3215 14.2741C29.8411 14.2745 31.3608 14.2743 32.8804 14.2743C33.047 14.2743 33.214 14.2793 33.3803 14.2725C33.4784 14.2685 33.5047 14.3048 33.5039 14.399C33.5003 14.9322 33.4983 15.4656 33.5051 15.9988C33.5066 16.1293 33.4435 16.1316 33.3459 16.1326C33.0119 16.1362 33.0077 16.1386 32.986 16.4698C32.881 18.0715 32.7792 19.6734 32.6748 21.2751C32.5602 23.0363 32.4431 24.7972 32.3287 26.5585C32.2693 27.474 32.2134 28.3895 32.1558 29.3051C32.1362 29.3172 32.1167 29.3294 32.0972 29.3415ZM21.4918 24.3023H21.231C16.8048 24.3023 12.3783 24.3025 7.95212 24.3017C7.6664 24.3017 7.38069 24.2947 7.09278 24.4029C7.13661 23.6151 7.31155 22.8771 7.63831 22.1776C8.17747 21.0236 8.99178 20.131 10.1526 19.5799C10.7493 19.2968 11.3803 19.1525 12.0436 19.1537C13.4302 19.1559 14.8167 19.1551 16.2032 19.1527C16.3015 19.1527 16.3766 19.1717 16.4509 19.246C18.0983 20.8983 19.7486 22.5474 21.3981 24.1973C21.4213 24.2202 21.4416 24.2459 21.4918 24.3023ZM15.3206 27.0769C12.7878 27.0769 10.2548 27.0775 7.72199 27.0763C7.06229 27.0761 6.57195 26.6554 6.51178 26.0445C6.44583 25.3718 6.91585 24.8156 7.59189 24.7677C7.66481 24.7626 7.73833 24.7632 7.81165 24.7632C12.4642 24.763 17.1168 24.7636 21.7693 24.7602C21.9064 24.7602 22.0033 24.7954 22.1005 24.8947C22.6424 25.4462 23.1892 25.9929 23.7407 26.5346C23.8351 26.6275 23.8349 26.6781 23.7387 26.7643C23.4864 26.9905 23.1927 27.0783 22.8594 27.0781C20.3465 27.0758 17.8335 27.0769 15.3206 27.0769ZM22.8907 27.5533C21.9184 29.2811 20.5414 30.3519 18.5246 30.3798C16.3525 30.4094 14.1787 30.4152 12.0068 30.373C10.0227 30.3345 8.68056 29.2499 7.7194 27.5533H22.8907ZM25.4747 28.3122C26.0716 28.9094 26.6532 29.4909 27.2534 30.0911H26.7823C26.4293 30.0911 26.0758 30.0867 25.7228 30.0939C25.6172 30.096 25.5827 30.0582 25.5771 29.9608C25.5446 29.416 25.5098 28.8713 25.4747 28.3122Z" fill="white"/>
<path d="M19.9779 0C8.98335 0.000796964 -0.0089593 8.99931 6.69901e-06 20.0022C0.0089727 31.0182 8.94191 39.9609 19.9759 39.9998C20.0002 39.9998 20.0227 40 20.0468 40C31.014 40 39.984 31.0252 40 20.0177C40.0159 8.99613 31.0507 0.0179317 20.0108 0H19.9779ZM19.9781 3.16235H19.9779H20.0056C29.3003 3.17749 36.8511 10.7367 36.8376 20.0131C36.8342 22.2775 36.3865 24.4761 35.5068 26.5479C34.6562 28.551 33.4402 30.3524 31.8927 31.9019C30.3458 33.4506 28.5488 34.6663 26.5518 35.5155C24.4882 36.3927 22.2997 36.8377 20.0468 36.8377L19.987 36.8374C17.7135 36.8295 15.5102 36.3786 13.4385 35.4978C11.4357 34.646 9.63648 33.4296 8.09094 31.8825C6.54579 30.3356 5.33279 28.5367 4.4854 26.5359C3.60932 24.4666 3.16421 22.2676 3.16242 19.9996C3.16063 17.7382 3.60494 15.5412 4.48321 13.4693C5.33279 11.4651 6.54978 9.66219 8.0999 8.1101C9.65003 6.55841 11.4514 5.33986 13.454 4.4887C15.5238 3.60865 17.7186 3.16255 19.9781 3.16235Z" fill="white"/>
<path fill-rule="evenodd" clip-rule="evenodd" d="M31.9008 34.1794L5.75415 8.03304L8.03451 5.75293L34.1812 31.8991L31.9008 34.1794Z" fill="white"/>
</svg>
