<svg width="40" height="40" viewBox="0 0 40 40" fill="none" xmlns="http://www.w3.org/2000/svg">
<path d="M25.7126 23.199C25.5393 22.9414 25.2765 22.767 25.0861 22.5251C25.0412 22.3931 25.0653 22.2769 25.1658 22.1785C25.3215 22.2063 25.282 22.3893 25.3854 22.4562C25.5669 22.5738 25.5827 22.8815 25.8708 22.8781C25.8914 22.8779 25.9146 22.9116 25.9237 22.9361C26.0686 23.3296 26.4154 23.4955 26.748 23.6842C26.8717 23.7543 26.8977 23.9164 26.9976 24.0237C27.1866 24.2264 27.3053 24.5018 27.6226 24.5509C27.6397 24.5536 27.6507 24.5726 27.6585 24.5895C27.925 25.1816 28.5131 25.4783 28.9061 25.9527C29.0057 26.0727 29.3026 26.0371 29.2043 26.316C29.3125 26.2939 29.3576 26.3652 29.4341 26.4291C29.6146 26.58 29.7958 26.7219 29.9297 26.9206C29.9634 26.9708 30.0448 27.0009 30.1262 26.9729C30.2289 26.9377 30.297 26.9935 30.3491 27.0766C30.3778 27.2168 30.2917 27.3151 30.2238 27.4203C30.1833 27.4703 30.1323 27.5028 30.0682 27.5137C29.0894 26.5387 28.1106 25.5639 27.1322 24.5886C27.0948 24.5513 27.0683 24.5009 27.008 24.494C26.7469 24.1758 26.4555 23.8877 26.1392 23.6246C25.9477 23.532 25.8062 23.3895 25.7126 23.199Z" fill="white"/>
<path d="M23.1435 25.7548C23.8484 26.4532 24.5538 27.1509 25.2576 27.8504C25.3397 27.9318 25.4126 28.022 25.49 28.1082C25.4902 28.1082 25.478 28.1255 25.478 28.1255C25.3407 28.243 25.1752 28.1867 25.0208 28.2008C24.9312 28.2147 24.8412 28.2097 24.7516 28.2097C20.6351 28.2099 16.5186 28.2103 12.4023 28.2082C12.2258 28.2082 12.0399 28.2451 11.8807 28.1262C11.4199 28.1211 10.9575 28.1247 10.5358 27.8936C10.2028 27.8004 10.013 27.5402 9.84646 27.2701C9.68642 27.0109 9.60797 26.7174 9.59321 26.4097C9.5871 23.0665 9.59005 19.7239 9.59258 16.3819C9.67334 15.3525 10.4434 14.625 11.4676 14.6111C11.5393 14.6102 11.611 14.6094 11.6827 14.6096C11.8069 14.605 11.9298 14.6075 12.0386 14.68C12.4306 15.0613 12.8228 15.4427 13.2148 15.824C13.3192 15.8406 13.3835 15.914 13.4545 15.9834C13.9724 16.4886 14.4764 17.008 14.9934 17.5142C15.1419 17.6673 15.2952 17.8158 15.444 17.9682C15.5252 18.0515 15.6062 18.1354 15.6026 18.2647C15.5988 18.3372 15.5731 18.4032 15.5442 18.4684C14.8131 19.8367 14.7294 21.2545 15.2191 22.7156C15.2648 22.894 15.3557 23.0543 15.427 23.2223C15.4523 23.2666 15.478 23.3107 15.5027 23.3554C15.8304 23.9998 16.2727 24.5491 16.8551 24.982C18.5068 26.2303 20.2897 26.4439 22.2003 25.6645C22.3667 25.5969 22.4966 25.4598 22.6775 25.4225C22.7054 25.4168 22.7338 25.4153 22.7623 25.4164C22.9597 25.4497 23.0843 25.5657 23.1435 25.7548Z" fill="white"/>
<path d="M19.4468 16.9061C19.8249 16.8224 20.2042 16.8104 20.5846 16.889C20.3959 17.0425 20.1635 16.904 19.9413 16.994C20.0912 17.0111 20.1207 17.1353 20.1928 17.2188C20.6306 17.7264 21.0559 18.2451 21.5525 18.6984C21.6389 18.7773 21.7045 18.8619 21.8521 18.7965C22.0303 18.7176 22.1144 18.7937 22.0478 18.9772C21.9944 19.1242 22.0286 19.1765 22.1585 19.2446C22.4358 19.3901 22.5798 19.6709 22.7732 19.901C22.7902 19.9181 22.8063 19.9364 22.8223 19.9546C22.9804 20.0655 23.0943 20.2205 23.2252 20.3586C23.2427 20.3761 23.2583 20.3948 23.274 20.414C23.3459 20.5057 23.4378 20.5793 23.5074 20.6744C23.6073 20.623 23.3906 20.5157 23.5445 20.4743C23.6177 20.4549 23.6967 20.4461 23.7457 20.5051C23.8104 20.5833 23.9213 20.6662 23.8593 20.7809C23.8041 20.8828 23.8207 20.9465 23.8977 21.0169C24.0251 20.8904 24.0951 20.7556 24.0223 20.5673C23.9949 20.4961 24.0398 20.4284 24.1408 20.4541C24.2165 20.8298 24.2045 21.2043 24.1229 21.5774C22.5952 20.0482 21.0675 18.5186 19.5387 16.9902C19.5151 16.9664 19.479 16.955 19.4487 16.9377C19.452 16.927 19.4512 16.9164 19.4468 16.9061Z" fill="white"/>
<path d="M25.2075 22.18C25.366 21.3321 25.3937 20.4876 25.1746 19.6431C24.4473 16.8401 21.6331 15.1562 18.8221 15.8457C18.7616 15.8604 18.6987 15.8661 18.6372 15.876C18.3616 15.8153 18.2741 15.5332 18.0661 15.3896C17.8625 15.2485 17.7975 14.9854 17.6071 14.824C17.5455 14.7718 17.5069 14.7039 17.412 14.7102C17.3534 14.7142 17.2881 14.6804 17.3144 14.6193C17.3633 14.5054 17.2685 14.5054 17.2187 14.4799C16.8155 14.2735 16.5734 13.9032 16.2881 13.5766C16.2768 13.4908 16.4374 13.3237 16.1825 13.3531C16.1408 13.2284 16.0172 13.3444 15.9558 13.2765C15.9094 13.205 15.9084 13.1213 15.8888 13.0425C15.8692 13.0001 15.8622 12.9558 15.8652 12.9094C15.9617 12.517 16.6112 12.0132 17.1647 12.0147C17.4787 12.0156 17.7927 12.0134 18.1068 12.0132C19.6681 12.0128 21.2295 12.0122 22.7908 12.0134C23.6528 12.0143 24.1721 12.4067 24.4028 13.2301C24.449 13.3954 24.5104 13.5534 24.5939 13.7027C24.9922 14.319 25.5421 14.6499 26.2922 14.6123C26.4608 14.6039 26.6304 14.6096 26.7997 14.609C27.4262 14.6026 28.0522 14.6001 28.6785 14.6077C29.7033 14.6199 30.4316 15.2751 30.5712 16.298C30.5963 19.6961 30.575 23.0937 30.5723 26.4911C30.5271 26.7073 30.552 26.9521 30.3272 27.0959C30.2697 27.0746 30.2408 26.9951 30.1672 27.0099C29.9374 27.0558 29.8775 27.0088 29.7533 26.7783C29.7092 26.6965 29.6544 26.5445 29.4952 26.6141C29.4319 26.6417 29.4277 26.5913 29.3954 26.5666C29.3296 26.5162 29.4325 26.2111 29.1886 26.4241C29.1871 26.4256 29.1679 26.414 29.1683 26.4095C29.2 26.0618 28.8303 26.0753 28.7004 25.886C28.5136 25.6135 28.2445 25.4267 28.0305 25.1844C27.9384 25.08 27.7941 25.0024 27.7014 24.8671C27.6377 24.7736 27.6141 24.6823 27.6101 24.5653C27.4743 24.625 27.3996 24.6874 27.3058 24.4824C27.228 24.3131 27.0061 24.1921 26.8914 24.008C26.8739 23.9797 26.817 23.9698 26.8088 23.9424C26.7208 23.6491 26.4001 23.6236 26.2209 23.4307C26.1039 23.3046 25.9282 23.2396 25.9033 23.033C25.8945 22.9598 25.8584 22.8421 25.7319 22.9421C25.7256 22.9469 25.6986 22.9385 25.6927 22.9292C25.536 22.6762 25.2205 22.5258 25.2075 22.18Z" fill="white"/>
<path d="M16.964 14.4513C16.8101 14.2481 16.6342 14.0671 16.4219 13.924C16.3045 13.715 16.0972 13.5883 15.947 13.4084C15.9129 13.3673 15.865 13.3434 15.8804 13.2802C15.9141 13.2481 15.9483 13.2481 15.9825 13.2796C16.0689 13.2399 16.155 13.2017 16.1978 13.3342C16.3783 13.3337 16.319 13.4535 16.3057 13.5501C16.6416 13.8179 16.8411 14.2312 17.2502 14.426C17.3193 14.4589 17.3879 14.4804 17.4577 14.4973C17.4535 14.5711 17.3415 14.5633 17.3651 14.671C17.5534 14.5393 17.5654 14.7183 17.6692 14.8001C17.8634 14.9532 17.9203 15.1864 18.0934 15.3403C18.2832 15.5094 18.4565 15.6967 18.6372 15.8761C18.5932 15.8974 18.5491 15.9187 18.505 15.9402C18.0588 15.5004 17.6141 15.0595 17.166 14.6219C17.1036 14.5608 17.0572 14.4773 16.964 14.4513Z" fill="white"/>
<path d="M15.8769 13.0653C15.8904 13.0558 15.9047 13.0482 15.9199 13.0425C15.9408 13.1216 15.9615 13.2006 15.9823 13.2795C15.9484 13.2797 15.9142 13.2799 15.8803 13.2801C15.8729 13.2666 15.8647 13.254 15.855 13.2422C15.8624 13.1833 15.8697 13.1243 15.8769 13.0653Z" fill="white"/>
<path d="M17.1023 19.7066C17.6472 20.245 18.1922 20.7831 18.7371 21.3214C18.9815 21.5637 19.2267 21.8053 19.4701 22.0485C20.2568 22.8346 21.0433 23.6211 21.8286 24.4087C21.8817 24.462 21.9696 24.5006 21.9374 24.6035C21.8948 24.6202 21.8522 24.6368 21.8096 24.6537C20.8647 23.6972 19.9104 22.7504 18.9657 21.7937C18.1096 20.9267 17.2351 20.0775 16.3723 19.217C16.3689 19.2022 16.3662 19.1873 16.3643 19.1723C16.3841 19.1449 16.4039 19.1175 16.4239 19.0898C16.6818 19.2604 16.9083 19.4658 17.1023 19.7066Z" fill="white"/>
<path d="M22.7813 19.9724C22.5624 19.8104 22.4472 19.5593 22.2619 19.3685C22.2505 19.3569 22.2459 19.3299 22.2347 19.3278C21.9707 19.2772 21.7972 19.1854 22.0186 18.8919C22.028 18.8793 22.0006 18.8242 21.9772 18.8052C21.9504 18.7837 21.9216 18.7903 21.8916 18.8289C21.7788 18.9744 21.6744 18.9233 21.5663 18.8101C21.2643 18.4944 20.9564 18.184 20.6524 17.8701C20.5803 17.7954 20.4677 17.7383 20.5178 17.6012C20.474 17.5886 20.498 17.4901 20.4436 17.5175C20.2292 17.6259 20.2311 17.5105 20.2629 17.3547C20.0367 17.3566 20.1343 16.8978 19.7847 17.0517C20.0326 16.7982 20.3283 16.9469 20.5845 16.8889C21.9793 17.05 22.9955 17.7802 23.685 18.9801C23.9452 19.4326 24.1175 19.923 24.1407 20.4542C24.1188 20.4687 24.0766 20.4936 24.0781 20.4966C24.1873 20.7123 24.1 20.8879 23.9878 21.0731C23.957 21.1235 23.9172 21.1773 23.9043 21.1363C23.867 21.018 23.5905 20.9542 23.8079 20.7627C23.8284 20.7446 23.7654 20.6115 23.7207 20.5457C23.6827 20.49 23.6064 20.5135 23.5448 20.5166C23.6152 20.5946 23.5545 20.7085 23.6241 20.792C23.4417 20.7041 23.3006 20.5822 23.2171 20.4C23.2441 20.3753 23.2635 20.3427 23.253 20.2832C23.2314 20.3321 23.2584 20.3802 23.2171 20.4C23.0689 20.2602 22.9251 20.1162 22.7813 19.9724C22.8198 19.9308 22.8274 19.8813 22.8104 19.825C22.807 19.8758 22.8228 19.9317 22.7813 19.9724Z" fill="white"/>
<path d="M26.7036 17.1136C26.7087 16.4951 27.2061 16.0123 27.8278 16.0224C28.4291 16.0325 28.9211 16.5346 28.9141 17.1317C28.9074 17.7272 28.4051 18.2259 27.8094 18.2286C27.1981 18.2314 26.6988 17.7278 26.7036 17.1136Z" fill="#FEFEFE"/>
<path d="M16.3057 13.5501C16.2536 13.4862 16.3182 13.3639 16.1978 13.3342C16.2467 13.2817 16.3205 13.2071 16.3686 13.284C16.4187 13.3642 16.4299 13.486 16.3057 13.5501Z" fill="white"/>
<path d="M16.3723 19.217C16.5033 19.2018 16.5585 19.3098 16.6313 19.3825C17.7782 20.5261 18.9234 21.6708 20.0686 22.8158C20.5943 23.3415 21.1197 23.8672 21.6433 24.395C21.7156 24.4682 21.8242 24.5226 21.8097 24.6535C20.5087 25.2433 19.2399 25.1632 18.0004 24.4705C17.923 24.4273 17.8454 24.3844 17.7678 24.3416C17.6683 24.3233 17.589 24.2775 17.5479 24.1797L17.549 24.1805C16.9811 23.7057 16.5537 23.1256 16.2536 22.4502C15.9367 21.5182 15.8728 20.5807 16.1978 19.6366C16.2469 19.4937 16.3137 19.3566 16.3723 19.217Z" fill="white"/>
<path d="M22.7873 19.9701C22.7565 19.8643 22.6334 19.7283 22.8744 19.6897C22.8982 19.8036 22.909 19.9077 22.7873 19.9701ZM23.235 20.1658C23.3136 20.1848 23.3189 20.246 23.3168 20.3092C23.3151 20.3586 23.2708 20.4146 23.2428 20.3942C23.1966 20.3602 23.1639 20.2947 23.1483 20.236C23.1329 20.1793 23.1954 20.1781 23.235 20.1658Z" fill="white"/>
<path d="M20 0C8.95433 0 0 8.95433 0 20C0 31.0457 8.95433 40 20 40C31.0457 40 40 31.0457 40 20C40 8.95433 31.0457 0 20 0ZM20 3.94062C22.1698 3.94062 24.2725 4.36467 26.2498 5.20095C28.1617 6.00962 29.8796 7.1681 31.3556 8.64436C32.8319 10.1204 33.9904 11.8383 34.7988 13.7502C35.6353 15.7275 36.0594 17.8302 36.0594 20C36.0594 22.1698 35.6353 24.2725 34.7988 26.2498C33.9904 28.1617 32.8319 29.8796 31.3556 31.3556C29.8796 32.8319 28.1617 33.9904 26.2498 34.7988C24.2725 35.6353 22.1698 36.0594 20 36.0594C17.8302 36.0594 15.7275 35.6353 13.7502 34.7988C11.8383 33.9904 10.1204 32.8319 8.64436 31.3556C7.1681 29.8796 6.00962 28.1617 5.20095 26.2498C4.36467 24.2725 3.94062 22.1698 3.94062 20C3.94062 17.8302 4.36467 15.7275 5.20095 13.7502C6.00962 11.8383 7.1681 10.1204 8.64436 8.64436C10.1204 7.1681 11.8383 6.00962 13.7502 5.20095C15.7275 4.36467 17.8302 3.94062 20 3.94062Z" fill="white"/>
<path d="M7.74626 5.20923L5.12817 7.82731L32.248 34.9471L34.8661 32.329L7.74626 5.20923Z" fill="white"/>
</svg>
