<svg width="40" height="40" viewBox="0 0 40 40" fill="none" xmlns="http://www.w3.org/2000/svg">
<path d="M21.09 39.9296C21.0883 39.9506 21.0863 39.9716 21.0841 39.9924H20.9282C20.9597 39.9139 21.0218 39.9139 21.09 39.9296Z" fill="#565656"/>
<path d="M28.7531 26.8947C27.5286 25.6667 26.2756 24.4102 25.0744 23.2057C26.1885 23.2057 27.4409 23.205 28.6931 23.2062C28.969 23.2066 28.8939 23.4402 28.9143 23.5826C29.0784 24.7235 29.0062 25.854 28.7531 26.8947ZM27.5833 29.6856C27.2272 30.372 26.7451 30.6617 25.9135 30.6293C23.9242 30.5521 21.9299 30.6044 19.9375 30.6044C17.7486 30.6044 15.5597 30.5983 13.3708 30.6118C13.0886 30.6136 12.9218 30.5232 12.7582 30.3027C11.2573 28.2809 10.6765 26.0236 10.9876 23.5292C11.0156 23.305 11.0707 23.1969 11.3428 23.1978C14.6457 23.2097 17.9489 23.2072 21.2518 23.2015C21.439 23.2011 21.567 23.2604 21.6956 23.3893C23.6387 25.3397 25.5832 27.2884 27.5367 29.2281C27.7047 29.3948 27.6813 29.4966 27.5833 29.6856ZM14.6726 17.4565C15.3054 17.0012 15.3072 17.0037 15.8504 17.5471C16.8412 18.5382 17.831 19.5305 18.8257 20.5178C18.9139 20.6053 19.0364 20.6582 19.1431 20.7272L19.0609 20.8263H11.8261C12.5099 19.4465 13.4524 18.3346 14.6726 17.4565ZM16.4052 14.2318C16.4249 13.6291 16.4189 13.0253 16.4073 12.4222C16.4036 12.2318 16.4609 12.1817 16.6487 12.1822C18.8515 12.1885 21.054 12.1885 23.2567 12.182C23.4457 12.1815 23.5008 12.234 23.4974 12.423C23.486 13.0391 23.4831 13.656 23.4984 14.272C23.5039 14.4958 23.4378 14.5548 23.2165 14.5525C22.1154 14.5413 21.014 14.5474 19.9127 14.5474C18.8505 14.5474 17.7884 14.5387 16.7267 14.5538C16.4695 14.5575 16.3969 14.4892 16.4052 14.2318ZM18.8478 7.52776C19.0589 7.33306 19.5918 7.48742 19.9823 7.48742C20.3571 7.49331 20.8567 7.30229 21.0718 7.53605C21.2572 7.7372 21.1367 8.23142 21.1293 8.5954C21.121 8.99715 21.3019 9.53245 21.0571 9.76123C20.8444 9.9598 20.3127 9.8292 19.9224 9.82128C19.547 9.81354 19.0478 9.98596 18.8329 9.75239C18.6475 9.55124 18.7678 9.05702 18.7754 8.69285C18.7835 8.2911 18.6026 7.75414 18.8478 7.52776ZM24.1983 16.9092C24.2886 16.9092 24.3739 16.9107 24.4614 16.9612C26.0468 17.8761 27.2399 19.1551 28.0904 20.8442H26.8026C25.4651 20.8442 24.1276 20.8451 22.7903 20.8431C22.6514 20.8427 22.5127 20.8717 22.3889 20.7477C21.1332 19.4881 19.8719 18.2337 18.5427 16.9087C20.5028 16.9087 22.3506 16.9085 24.1983 16.9092ZM33.0331 31.4039C32.3026 30.6332 31.5427 29.8901 30.7823 29.1485C30.6263 28.9961 30.6073 28.8727 30.6771 28.6729C32.4685 23.5432 30.6381 18.1696 26.0807 15.1871C25.8995 15.0685 25.8481 14.948 25.8495 14.7452C25.8578 13.5385 25.856 12.3318 25.8527 11.1249C25.8505 10.309 25.3724 9.83786 24.5614 9.82201C24.2125 9.8152 23.7343 9.97711 23.5509 9.75386C23.3753 9.54037 23.4954 9.08004 23.4941 8.72821C23.491 7.94111 23.4971 7.15419 23.4919 6.36709C23.4868 5.60228 23.001 5.10659 22.2443 5.10382C20.7101 5.09848 19.176 5.09774 17.6418 5.10438C16.9083 5.10751 16.4176 5.60633 16.4132 6.34572C16.4069 7.40803 16.4025 8.4707 16.4183 9.533C16.4222 9.78407 16.3489 9.84651 16.1118 9.82994C15.8117 9.80912 15.5087 9.8163 15.2075 9.82772C14.5619 9.85222 14.0741 10.3383 14.0546 10.9851C14.0412 11.4266 14.052 11.8691 14.052 12.4077C12.1389 10.492 10.2981 8.64311 8.44708 6.80458C8.38722 6.74508 8.35056 6.69645 8.3338 6.65279C7.72206 7.18643 7.14734 7.7617 6.61426 8.37381C6.68499 8.38725 6.76494 8.44196 6.8692 8.54769C9.01535 10.7224 11.1818 12.8776 13.3436 15.0368C13.4267 15.1199 13.5274 15.1855 13.6501 15.2831C12.9499 15.7843 12.3271 16.28 11.7707 16.8551C7.56143 21.2065 7.45441 28.0116 11.5244 32.4997C11.806 32.8103 12.1372 32.9681 12.5596 32.9678C17.4898 32.9644 22.42 32.9644 27.3502 32.9678C27.7735 32.9681 28.1077 32.8092 28.3842 32.496C28.7576 32.0731 29.1094 31.6337 29.448 31.1346C30.1422 31.8338 30.8199 32.527 31.5114 33.2061C31.5488 33.243 31.5731 33.2752 31.5873 33.3037C32.1961 32.7708 32.7682 32.1969 33.2991 31.586C33.2234 31.5765 33.1411 31.5175 33.0331 31.4039Z" fill="white"/>
<path d="M19.9999 0C8.95432 0 0 8.95414 0 19.9999C0 31.0457 8.95432 40 19.9999 40C31.0457 40 40 31.0457 40 19.9999C40 8.95414 31.0457 0 19.9999 0ZM19.9999 2.40736C22.3759 2.40736 24.6798 2.8721 26.8471 3.78888C28.9417 4.67472 30.8235 5.94351 32.4399 7.56008C34.0563 9.17647 35.3253 11.0581 36.2111 13.1529C37.1279 15.3202 37.5926 17.6239 37.5926 19.9999C37.5926 22.3759 37.1279 24.6798 36.2111 26.8471C35.3253 28.9417 34.0563 30.8233 32.4399 32.4399C30.8235 34.0563 28.9417 35.3251 26.8471 36.2111C24.6798 37.1277 22.3759 37.5926 19.9999 37.5926C17.6239 37.5926 15.3202 37.1277 13.1529 36.2111C11.0583 35.3251 9.17647 34.0563 7.56008 32.4399C5.9437 30.8233 4.67472 28.9417 3.78888 26.8471C2.8721 24.6798 2.40736 22.3759 2.40736 19.9999C2.40736 17.6239 2.8721 15.3202 3.78888 13.1529C4.67472 11.0581 5.9437 9.17647 7.56008 7.56008C9.17647 5.94351 11.0583 4.67472 13.1529 3.78888C15.3202 2.8721 17.6239 2.40736 19.9999 2.40736Z" fill="white"/>
</svg>
