<svg width="48" height="48" viewBox="0 0 48 48" fill="none" xmlns="http://www.w3.org/2000/svg">
<rect x="0.25" y="0.25" width="47.5" height="47.5" rx="23.75" stroke="#FAFAFA" stroke-width="0.5"/>
<path d="M26.0632 4.52176C23.6415 4.08451 17.2095 10.3095 17.2095 10.3095L21.3705 18.5235L27.7612 26.7848L32.8875 31.6395L38.1128 32.9933L41.0752 34.5803H31.9485L14.052 31.794L12.7845 27.1598L15.3802 28.233L13.2833 22.911H16.5458L14.8478 17.3573L16.944 16.563L18.3757 13.8578L17.2103 10.3103C17.2103 10.3103 16.023 8.98351 15.5468 9.00301C13.4677 9.08176 9.25575 14.487 6.7815 17.7315C4.0605 21.2948 1.5 21.5115 1.5 21.5115V46.5H46.5V34.5795H42.24L39.477 32.2695L35.0168 29.9588L36.5145 28.839L32.5537 25.8998L30.573 20.064L33.153 21.183L29.1915 15.6758H30.39L28.6598 12.1778L27.993 6.76051C27.9938 6.76126 26.6857 4.63351 26.0632 4.52176ZM30.411 35.9805C31.4325 36.2093 32.4233 36.5198 33.5513 35.97C35.4142 35.1015 36.7687 36.3345 38.5672 36.5715C36.8498 36.8048 35.4322 35.592 33.6847 36.438C32.073 37.185 30.8468 36.369 29.3805 35.9805H30.411ZM2.90625 31.4775L22.845 34.5803H2.90625V31.4775ZM11.8988 36.4613C10.7325 36.6863 9.7005 35.8538 8.5095 36.438C7.23675 37.0238 6.31725 36.2535 5.12175 35.9805H6.0435C6.801 36.1103 7.539 36.3638 8.349 35.9805H10.4025C10.8795 36.147 11.3595 36.3593 11.8988 36.4613ZM9.048 44.529C7.182 45.3945 5.83125 44.1645 4.0305 43.926C5.74875 43.6988 7.1655 44.9108 8.91225 44.0625C10.776 43.1925 12.1305 44.4263 13.9298 44.664C12.2122 44.895 10.7955 43.6838 9.048 44.529ZM21.534 39.15C20.268 38.9985 19.2593 39.396 18.0653 39.807C15.879 40.5585 14.2898 39.0863 12.2318 38.6663C12.3225 38.6483 12.3922 38.6408 12.4515 38.6378C13.4872 38.5118 14.3528 38.9873 15.3795 39.1118C16.6455 39.2663 17.655 38.8605 18.8483 38.4503C21.0322 37.7033 22.6252 39.1695 24.681 39.594C23.5448 39.831 22.6327 39.2828 21.534 39.15ZM31.8465 42.9518C29.6603 43.7018 28.071 42.2318 26.013 41.811C26.0852 41.796 26.1584 41.7865 26.232 41.7825C27.2678 41.655 28.134 42.1328 29.16 42.2565C30.426 42.4095 31.4355 42.0053 32.6295 41.5958C34.8135 40.848 36.4065 42.3143 38.4622 42.738C37.3253 42.9758 36.414 42.4275 35.3153 42.2948C34.0485 42.141 33.0398 42.5415 31.8465 42.9518ZM40.362 45.0683C38.496 45.9338 37.146 44.7038 35.3452 44.4653C37.0635 44.2358 38.4803 45.45 40.2278 44.6018C42.0908 43.7318 43.4453 44.9648 45.2438 45.2018C43.5262 45.4343 42.1095 44.2223 40.362 45.0683ZM45.375 39.207C44.2088 39.432 43.1768 38.5988 41.9865 39.183C40.6635 39.7913 39.726 38.9303 38.463 38.6918C38.541 38.676 38.5957 38.6745 38.6317 38.676C39.729 38.5583 40.7183 39.2708 41.8507 38.7165C43.1722 38.1023 44.112 38.9678 45.375 39.207Z" fill="#FAFAFA"/>
<path d="M31.9545 14.1832L35.8485 23.1855L39.8093 29.9587L40.674 29.1187L41.7563 30.2865L46.5 32.667V16.2825C46.5 16.2825 43.5893 14.8455 42.573 14.7907C41.9468 14.7555 40.11 15.4425 40.11 15.4425L44.0295 20.6715C40.743 19.5397 40.11 15.4425 40.11 15.4425C40.11 15.4425 38.6445 14.3355 38.1128 14.136C37.5645 13.929 35.8493 13.8577 35.8493 13.8577L41.0753 24.3937C36.615 23.5507 37.3808 17.5297 35.8493 13.8577C35.8493 13.8577 34.6778 11.1322 34.0523 10.59C33.4658 10.0822 31.9605 10.2817 31.3478 9.84374C30.6308 9.32774 29.7413 7.17674 28.9935 6.76199C28.761 6.63449 27.9945 6.76199 27.9945 6.76199L30.3578 11.7097L31.9545 14.1832Z" fill="#FAFAFA"/>
</svg>
