<svg width="48" height="49" viewBox="0 0 48 49" fill="none" xmlns="http://www.w3.org/2000/svg">
<rect x="0.25" y="0.75" width="47.5" height="47.5" rx="23.75" stroke="#FAFAFA" stroke-width="0.5"/>
<path d="M21.2719 2.35339C19.3406 3.18214 17.7094 4.07558 16.4156 4.99902C16.3969 4.43558 15.9375 3.98183 15.375 3.98183C14.7937 3.98183 14.325 4.44964 14.325 5.02621C14.325 5.51089 14.6625 5.91777 15.1031 6.03589C11.7281 9.04902 11.7844 12.2375 15.7687 14.3843C15.675 14.5812 15.6187 14.8062 15.6187 15.0406C15.6187 15.8562 16.2844 16.5125 17.1 16.5125C17.7562 16.5125 18.3094 16.0906 18.4969 15.5093C20.9625 16.2406 23.2594 16.4656 25.3312 16.7562C31.125 17.7218 32.5406 21.0312 31.5281 24.7343C34.0687 22.6156 34.2375 20.5812 33.2531 18.8375C36.4969 20.7031 36.4125 23.5906 29.8219 27.0406C30.7687 27.0687 31.6781 27.0781 32.55 27.05C38.8312 25.9531 39.8156 22.7093 38.0625 21.2093C42.5531 21.8093 41.925 24.6031 38.8312 26.2343C42.1312 25.3156 43.8187 23.6468 43.3312 21.4156C43.6219 21.2281 43.8094 20.9093 43.8094 20.5437C43.8094 19.9718 43.3406 19.5031 42.7594 19.5031C42.6375 19.5031 42.525 19.5218 42.4219 19.5593C41.325 17.6281 39.3187 16.4281 37.4437 15.8375C35.2875 15.1437 32.4375 14.6281 28.7437 12.8375C23.7375 10.5968 23.25 8.78652 25.575 7.38027C25.6687 7.85839 26.0906 8.21464 26.5969 8.21464C27.1781 8.21464 27.6469 7.74589 27.6469 7.17402C27.6469 6.93027 27.5625 6.71464 27.4312 6.53464C31.3406 5.13496 38.4281 4.26308 46.1625 3.90402V2.35339H21.2719ZM11.7375 5.08433C11.1937 5.08433 10.7437 5.50527 10.7062 6.04058C10.6406 6.03121 10.575 6.02558 10.5094 6.02558C9.77812 6.02558 9.1828 6.62089 9.1828 7.35214C9.1828 8.08339 9.77812 8.68339 10.5094 8.68339C11.2312 8.68339 11.8312 8.08339 11.8312 7.35214C11.8312 7.28652 11.8219 7.23027 11.8125 7.16464C12.3562 7.12714 12.7781 6.67714 12.7781 6.12871C12.7781 5.55121 12.3094 5.08433 11.7375 5.08433ZM45.1781 5.26902C37.7156 5.23621 28.7344 6.89277 29.4187 10.3718C28.9687 10.4937 28.6406 10.8968 28.6406 11.3843C28.6406 11.9562 29.1094 12.425 29.6812 12.425C30.1219 12.425 30.4969 12.1625 30.6469 11.7781C33.5812 13.0625 35.9062 13.5031 37.9781 14.1687C38.025 14.1781 38.0812 14.1968 38.1281 14.2156C37.7625 12.6687 38.5312 11.0843 40.4719 10.0343C40.6031 10.4656 41.0062 10.775 41.475 10.775C42.0562 10.775 42.5156 10.3062 42.5156 9.72402C42.5156 9.56464 42.4875 9.41464 42.4219 9.28339C43.4719 9.00214 44.7187 8.83339 46.1625 8.82402V5.28308C45.8344 5.27371 45.5062 5.26996 45.1781 5.26902ZM21.4687 5.61683C18.7125 7.87714 18.3 12.9687 25.8094 14.1687C21.0937 15.2 17.9812 13.3718 17.0812 11.1218C17.1562 11.1406 17.2406 11.15 17.3156 11.15C17.8969 11.15 18.3656 10.6812 18.3656 10.1093C18.3656 9.52714 17.8969 9.05839 17.3156 9.05839C17.1562 9.05839 17.0062 9.09589 16.8656 9.16152C17.1562 7.55839 18.6187 6.09871 21.4687 5.61683ZM43.9312 10.8031C43.35 10.8031 42.8812 11.2718 42.8812 11.8437C42.8812 12.2562 43.1156 12.6125 43.4625 12.7812C43.3687 12.9687 43.3125 13.175 43.3125 13.4C43.3125 14.1593 43.9312 14.7781 44.6906 14.7781C45.4594 14.7781 46.0687 14.1593 46.0687 13.4C46.0687 12.725 45.5906 12.1625 44.9531 12.0406C44.9719 11.9843 44.9719 11.9187 44.9719 11.8437C44.9719 11.2718 44.5031 10.8031 43.9312 10.8031ZM11.1 11.675C10.5281 11.675 10.0594 12.1437 10.0594 12.7156C10.0594 13.2968 10.5281 13.7656 11.1 13.7656C11.6719 13.7656 12.1312 13.2968 12.1312 12.7156C12.1312 12.1437 11.6719 11.675 11.1 11.675ZM40.8375 12.2843C40.2656 12.2843 39.7969 12.7437 39.7969 13.325C39.7969 13.8968 40.2656 14.3656 40.8375 14.3656C41.4187 14.3656 41.8875 13.8968 41.8875 13.325C41.8875 12.7437 41.4187 12.2843 40.8375 12.2843ZM22.7062 17.9187C22.125 17.9187 21.6656 18.3875 21.6656 18.9593C21.6656 19.5406 22.125 20.0093 22.7062 20.0093C23.2781 20.0093 23.7469 19.5406 23.7469 18.9593C23.7469 18.3875 23.2781 17.9187 22.7062 17.9187ZM13.725 22.2406C12.8344 21.95 11.4844 21.3968 10.7062 21.9781C10.35 22.2687 10.125 22.8593 10.3031 23.8625C10.5094 25.0062 11.2687 26.525 12.6469 28.0437C14.2969 25.8406 17.55 24.9312 20.2406 26.0375C20.2781 23.0375 19.6312 21.2375 18.6937 20.7031C16.7719 19.6156 14.9531 20.9281 13.725 22.2406ZM24.6656 23.0093C23.4562 23.6468 22.1719 24.7531 21.0562 26.4406C22.3687 27.2093 23.3906 28.4187 23.9156 29.8718C26.6625 27.9687 28.1719 26.2812 28.7719 25.0531C29.1937 24.1906 29.2969 23.0656 28.4719 22.5968C27.2812 22.0156 25.65 22.5125 24.6656 23.0093ZM43.4906 26.4031C42.9094 26.4031 42.4406 26.8718 42.4406 27.4531C42.4406 28.025 42.9094 28.4937 43.4906 28.4937C44.0625 28.4937 44.5312 28.025 44.5312 27.4531C44.5312 26.8718 44.0625 26.4031 43.4906 26.4031ZM5.8078 27.0687C4.90874 27.1062 3.06937 27.275 3.11718 28.4C3.16405 29.1312 4.18593 30.6125 6.3703 31.7562C7.67343 32.4406 9.36093 33.0125 11.3719 33.35C11.1375 32.1125 11.2875 30.725 11.7094 29.6562C11.1 29.0187 10.5656 28.3718 10.125 27.725C8.33905 27.2468 6.90468 27.05 5.8078 27.0687ZM16.3875 27.5L16.7812 30.7718L14.3719 28.7187C13.5375 29.5625 13.0125 30.725 13.0031 32.0093L16.2281 32.3937L13.5656 34.3343C14.2031 35.5343 15.3469 36.425 16.7062 36.7343L17.7187 33.3687L19.1719 36.6406C20.5406 36.2281 21.6375 35.2156 22.1812 33.9125L19.6406 32.6093L22.5375 31.7375C22.4625 30.7062 22.0687 29.7687 21.45 29.0187L18.9187 30.65L19.6219 27.6687C18.525 27.2656 17.4281 27.2 16.3875 27.5ZM27.4969 29.3281C26.625 30.1062 25.5656 30.9125 24.2906 31.7375C24.3281 33.1531 23.775 34.85 23.0906 35.8437C26.0344 36.9875 28.4625 37.6437 30.3375 37.8968C31.4906 37.9343 34.95 38.4312 35.4094 36.95C35.8781 35.45 32.7562 33.6875 31.9125 33.2093C33.7875 31.6718 33.6 30.1343 31.8375 29.3468C30.3937 28.7 28.8562 28.8968 27.4969 29.3281ZM7.70155 34.2312C5.54812 34.8218 1.39593 36.0406 1.87968 38.375C2.28749 40.3437 5.97562 39.7625 7.77655 39.6312C7.31062 40.8312 6.53437 42.8656 7.35468 43.8593C7.78593 44.3562 8.60155 44.6187 9.65624 44.4218C11.6156 44.0562 14.175 42.0781 14.8969 37.9343C13.6969 37.3437 12.7125 36.3968 12.0656 35.225C10.4437 35.0281 8.98593 34.6812 7.70155 34.2312ZM21.7781 37.2218C21.2719 37.6156 20.7 37.9437 20.0906 38.1687C21.9469 41.6187 23.6719 43.8218 25.0687 45.0031C25.7719 45.5468 27.3844 46.7562 28.1344 45.8656C28.5844 45.35 28.8187 43.6718 27.9375 41.4218C27.6281 40.6343 27.1875 39.7812 26.6062 38.8906C25.1625 38.4875 23.55 37.9343 21.7781 37.2218ZM16.575 38.4875C16.1531 40.6718 15.2531 42.3875 14.1375 43.6531C14.55 45.2375 15.9656 46.7468 17.4281 46.5968C19.1719 46.4187 20.2687 44.2437 20.55 42.3781C19.8187 41.2906 19.0687 40.0343 18.3094 38.5812C17.7281 38.6187 17.1 38.5812 16.575 38.4875Z" fill="#FAFAFA"/>
</svg>
