<svg width="48" height="48" viewBox="0 0 48 48" fill="none" xmlns="http://www.w3.org/2000/svg">
<rect x="0.25" y="0.25" width="47.5" height="47.5" rx="23.75" stroke="#FAFAFA" stroke-width="0.5"/>
<path d="M37.3155 2.34304L36.657 0.993042L35.31 1.65304C29.559 4.45804 27.144 11.3985 29.955 17.1585L30.039 17.331C28.6111 20.8665 26.1941 23.9153 23.0775 26.112L21.69 23.2575C23.4739 22.2991 24.8178 20.6877 25.4405 18.7607C26.0632 16.8338 25.9162 14.7406 25.0305 12.9195L21.66 5.99104L20.3115 6.64654C18.4421 7.55637 17.0107 9.17154 16.3322 11.1367C15.6537 13.1019 15.7837 15.2562 16.6935 17.1255L18.999 21.8655C19.0125 21.9045 19.029 21.9435 19.047 21.981L21.582 27.195C18.3476 29.7473 15.9116 33.1723 14.562 37.065L14.178 38.175L12.732 35.2005C14.935 34.0359 16.5996 32.0612 17.3748 29.6929C18.1499 27.3246 17.975 24.7479 16.887 22.506L12.747 14.013L11.397 14.673C6.639 16.998 4.644 22.7385 6.9735 27.5085L10.3995 34.536C10.4145 34.5825 10.4325 34.629 10.455 34.674L13.338 40.605L12.027 44.4L13.737 44.985L15.2475 40.6245L20.9475 41.2185C20.9839 41.2217 21.0205 41.2227 21.057 41.2215L27.861 41.9325C29.1159 42.0647 30.3845 41.9484 31.5943 41.5901C32.8042 41.2318 33.9316 40.6387 34.9121 39.8445C35.8927 39.0504 36.7071 38.0708 37.3089 36.9618C37.9107 35.8527 38.2881 34.636 38.4195 33.381L38.5755 31.8885L29.178 30.909C26.6957 30.6475 24.2091 31.3626 22.2449 32.9028C20.2808 34.4431 18.9934 36.6875 18.6555 39.1605L15.855 38.868L16.272 37.665C17.4452 34.299 19.5052 31.312 22.2345 29.019L27.084 29.5335V29.5365L28.0245 29.634L28.785 29.715C28.7985 29.7163 28.812 29.7173 28.8255 29.718L34.761 30.3375C39.06 30.7815 42.924 27.6675 43.3695 23.3595L43.524 21.8685L35.859 21.069H35.8545C31.644 20.616 27.8895 23.601 27.285 27.7365L24.3795 27.426C27.6798 25.0275 30.2334 21.7432 31.7445 17.9535L31.959 17.8485C37.728 15.042 40.125 8.09854 37.314 2.34304M32.1045 14.253C32.0879 14.2469 32.0708 14.2419 32.0535 14.238C31.6302 12.5921 31.7031 10.8577 32.263 9.25306C32.823 7.64843 33.845 6.24525 35.2005 5.22004C35.6348 6.86312 35.5725 8.59805 35.0215 10.2057C34.4704 11.8134 33.4554 13.2218 32.1045 14.253ZM19.3905 15.8145C18.9434 14.8962 18.798 13.8601 18.975 12.8542C19.152 11.8483 19.6423 10.9241 20.376 10.2135L22.332 14.2305C22.7787 15.1487 22.9235 16.1847 22.7457 17.1902C22.5679 18.1958 22.0765 19.1192 21.342 19.8285L19.3905 15.8145ZM9.6675 26.1915C9.01504 24.8524 8.83513 23.3318 9.15707 21.8773C9.47901 20.4229 10.2838 19.1203 11.4405 18.1815L14.1855 23.814C14.8355 25.1539 15.0144 26.6755 14.6932 28.1297C14.372 29.5839 13.5695 30.8871 12.4155 31.8285L9.6675 26.1915ZM35.07 27.354L30.6225 26.889C31.0362 25.9575 31.7346 25.1812 32.6172 24.6715C33.4999 24.1618 34.5214 23.9451 35.535 24.0525H35.5395L39.993 24.5175C39.5753 25.4482 38.8746 26.2232 37.9906 26.7323C37.1066 27.2413 36.0846 27.4599 35.07 27.354ZM21.93 38.295C22.4197 36.8861 23.3715 35.6842 24.6307 34.8846C25.89 34.0851 27.3826 33.7349 28.866 33.891L35.109 34.542C34.6193 35.951 33.6675 37.1529 32.4083 37.9524C31.149 38.752 29.6564 39.1022 28.173 38.946L21.93 38.295Z" fill="#FAFAFA"/>
</svg>
