<svg width="32" height="32" viewBox="0 0 32 32" fill="none" xmlns="http://www.w3.org/2000/svg">
<g clip-path="url(#clip0_560_561)">
<path d="M32 23.9999C32 24.9429 31.6254 25.8473 30.9586 26.514C30.2918 27.1808 29.3874 27.5554 28.4444 27.5554H3.55556C2.61256 27.5554 1.70819 27.1808 1.0414 26.514C0.374602 25.8473 0 24.9429 0 23.9999V7.99989C0 7.0569 0.374602 6.15253 1.0414 5.48573C1.70819 4.81894 2.61256 4.44434 3.55556 4.44434H28.4444C29.3874 4.44434 30.2918 4.81894 30.9586 5.48573C31.6254 6.15253 32 7.0569 32 7.99989V23.9999Z" fill="#DE2910"/>
<path d="M9.8985 7.97964L10.5527 8.29608L11.0763 7.79297L10.9776 8.51297L11.6176 8.85608L10.9029 8.98408L10.7749 9.69875L10.4318 9.05875L9.71183 9.15741L10.2149 8.63386L9.8985 7.97964ZM14.0452 10.5939L13.7287 11.2472L14.2318 11.7716L13.5127 11.6721L13.1696 12.313L13.0416 11.5974L12.3261 11.4694L12.9669 11.1263L12.8674 10.4072L13.3918 10.9103L14.0452 10.5939ZM13.1945 13.953L13.4327 14.6392L14.1589 14.6543L13.5803 15.0925L13.7909 15.7885L13.1945 15.3734L12.5981 15.7885L12.8078 15.0925L12.2292 14.6543L12.9554 14.6392L13.1945 13.953ZM9.8985 16.8685L10.5527 17.185L11.0763 16.6819L10.9776 17.4019L11.6176 17.745L10.9029 17.873L10.7749 18.5876L10.4318 17.9476L9.71183 18.0463L10.2149 17.5227L9.8985 16.8685ZM6.22206 9.7343L7.04783 12.1085L9.55983 12.1601L7.55717 13.6783L8.28517 16.0836L6.22206 14.6481L4.15894 16.0836L4.88694 13.6783L2.88428 12.1601L5.39628 12.1085L6.22206 9.7343Z" fill="#FFDE02"/>
</g>
<defs>
<clipPath id="clip0_560_561">
<rect width="32" height="32" fill="white"/>
</clipPath>
</defs>
</svg>
