<svg width="32" height="32" viewBox="0 0 32 32" fill="none" xmlns="http://www.w3.org/2000/svg">
<g clip-path="url(#clip0_560_478)">
<path d="M32 23.9999C32 24.9429 31.6254 25.8473 30.9586 26.514C30.2918 27.1808 29.3874 27.5554 28.4444 27.5554H3.55556C2.61256 27.5554 1.70819 27.1808 1.0414 26.514C0.374602 25.8473 0 24.9429 0 23.9999V7.99989C0 7.0569 0.374602 6.15253 1.0414 5.48573C1.70819 4.81894 2.61256 4.44434 3.55556 4.44434H28.4444C29.3874 4.44434 30.2918 4.81894 30.9586 5.48573C31.6254 6.15253 32 7.0569 32 7.99989V23.9999Z" fill="#EEEEEE"/>
<path d="M16.0001 22.2223C19.4365 22.2223 22.2223 19.4365 22.2223 16.0001C22.2223 12.5636 19.4365 9.77783 16.0001 9.77783C12.5636 9.77783 9.77783 12.5636 9.77783 16.0001C9.77783 19.4365 12.5636 22.2223 16.0001 22.2223Z" fill="#ED1B2F"/>
</g>
<defs>
<clipPath id="clip0_560_478">
<rect width="32" height="32" fill="white"/>
</clipPath>
</defs>
</svg>
